<svg width="11" height="9" viewBox="0 0 11 9" fill="none" xmlns="http://www.w3.org/2000/svg">
<path d="M1 3.5C0.447715 3.5 0 3.94772 0 4.5C0 5.05228 0.447715 5.5 1 5.5V3.5ZM9.5 4.5L10.2071 5.20711C10.5976 4.81658 10.5976 4.18342 10.2071 3.79289L9.5 4.5ZM5.29289 7.29289C4.90237 7.68342 4.90237 8.31658 5.29289 8.70711C5.68342 9.09763 6.31658 9.09763 6.70711 8.70711L5.29289 7.29289ZM6.70711 0.292893C6.31658 -0.0976311 5.68342 -0.0976311 5.29289 0.292893C4.90237 0.683417 4.90237 1.31658 5.29289 1.70711L6.70711 0.292893ZM1 5.5H9.5V3.5H1V5.5ZM8.79289 3.79289L5.29289 7.29289L6.70711 8.70711L10.2071 5.20711L8.79289 3.79289ZM10.2071 3.79289L6.70711 0.292893L5.29289 1.70711L8.79289 5.20711L10.2071 3.79289Z" fill="white"/>
</svg>
