<svg width="344" height="211" viewBox="0 0 344 211" fill="none" xmlns="http://www.w3.org/2000/svg">
<g filter="url(#filter0_d)">
<path d="M72.2386 118.046C68.3667 118.686 62.7816 119.29 55.4832 119.824C48.1849 120.357 43.2166 120.606 40.5782 120.606C37.9056 120.606 35.8839 120.25 34.4791 119.539C33.0743 118.864 32.2862 117.655 32.0463 115.984C31.2582 109.478 30.573 102.047 29.9905 93.6564C29.408 85.3013 28.9283 76.4129 28.5171 67.0268C28.243 61.2316 30.6072 57.9251 35.6441 57.2141C39.1733 56.7163 44.6214 56.183 51.954 55.6497C59.2866 55.1164 65.043 54.7964 69.2233 54.6898C73.4036 54.5831 77.4811 55.2942 81.49 56.7874C85.4989 58.2807 88.7541 60.3783 91.2896 63.0448C96.5321 68.5556 99.4103 75.1686 99.9586 82.9192C100.507 91.0965 98.4852 98.5627 93.8595 105.318C91.6323 108.589 88.6513 111.362 84.9164 113.637C81.1474 115.913 76.9328 117.371 72.2386 118.046ZM65.3172 74.5997L66.8248 96.5362C66.8591 97.0339 67.0646 97.4606 67.4416 97.8517C67.8185 98.2428 68.2982 98.4205 68.8807 98.385C72.6155 98.1005 75.3909 96.5717 77.2069 93.763C79.023 90.9543 79.811 87.7545 79.5712 84.0925C79.3313 80.466 78.2006 77.3729 76.179 74.813C74.1574 72.2532 71.6218 71.0799 68.5038 71.3288C67.7499 71.3999 67.1674 71.471 66.7563 71.5421C65.6941 71.9687 65.2144 72.9998 65.3172 74.5997Z" fill="#F8F6BE"/>
<path d="M108.285 51.9878L131.448 47.9347C133.88 47.508 135.559 47.8636 136.553 48.9657C137.547 50.0679 138.472 52.5922 139.363 56.4319C140.254 60.3073 141.624 67.8801 143.474 79.115C145.325 90.3855 146.421 98.6694 146.832 104.002C146.901 105.425 146.49 106.74 145.667 107.984C144.845 109.229 143.577 110.082 141.933 110.473C138.677 111.291 134.908 112.073 130.591 112.82C126.274 113.566 122.162 114.171 118.256 114.597C116.577 114.775 115.138 114.42 113.938 113.495C112.739 112.606 111.951 111.469 111.574 110.118C110.238 104.927 108.662 96.714 106.846 85.4436C104.995 74.1731 103.899 66.5647 103.522 62.6182C103.145 58.6718 103.248 55.9697 103.796 54.5832C104.379 53.3388 105.852 52.4144 108.285 51.9878Z" fill="#F8F6BE"/>
<path d="M167.768 109.513C163.382 108.447 160.298 107.38 158.517 106.278C156.701 105.176 155.501 104.358 154.919 103.896C153.377 102.651 152.589 100.909 152.52 98.6694C152.486 96.9273 152.657 95.2562 153.034 93.6563C153.72 90.6699 155.09 89.1411 157.078 89.1055C157.729 89.1411 159.784 89.8166 163.279 91.0609C166.774 92.3053 169.516 92.9097 171.503 92.8742C174.484 92.8031 175.957 91.5587 175.889 89.1411C175.854 87.6834 175.101 86.3679 173.627 85.1591C172.154 83.9502 170.338 82.777 168.248 81.6748C166.158 80.5727 164.033 79.2927 161.909 77.8706C159.784 76.4485 157.968 74.4219 156.426 71.791C154.919 69.1956 154.131 66.138 154.062 62.6182C153.959 56.7874 156.598 52.1655 162.012 48.7523C167.425 45.3392 174.484 43.526 183.187 43.3482C191.89 43.1704 198.812 43.9171 203.951 45.6592C209.091 47.4013 211.695 49.89 211.764 53.161C211.798 55.5075 211.318 57.6051 210.325 59.4184C209.297 61.2316 208.234 62.156 207.035 62.156C206.624 62.156 205.253 61.7293 202.923 60.8405C200.593 59.9517 198.503 59.525 196.619 59.5606C192.952 59.6317 191.136 61.1605 191.205 64.147C191.239 65.6047 192.13 66.9201 193.912 68.0934C195.694 69.2667 197.818 70.4044 200.319 71.471C202.821 72.5376 205.356 73.7464 207.892 75.0619C210.427 76.4129 212.586 78.2617 214.402 80.6438C216.218 83.0259 217.143 85.9412 217.212 89.3899C217.28 92.8386 216.287 96.0029 214.196 98.9183C212.106 101.798 209.365 104.074 205.87 105.745C198.983 108.98 190.965 110.722 181.782 110.9C176.848 111.042 172.12 110.544 167.768 109.513Z" fill="#F8F6BE"/>
<path d="M278.374 105.353L266.518 94.2252C265.285 93.052 264.12 92.5542 263.023 92.732C261.687 92.9097 261.173 94.1541 261.481 96.4295L262.646 104.998C262.784 106.065 262.441 107.024 261.619 107.807C260.796 108.589 259.734 109.158 258.466 109.442C254.868 110.224 250.757 110.935 246.165 111.611C241.574 112.286 237.188 112.82 233.076 113.175C231.329 113.317 229.855 112.891 228.656 111.931C227.457 110.971 226.703 109.798 226.429 108.447C225.264 103.22 223.893 95.0785 222.386 83.9147C220.878 72.7865 219.987 65.2136 219.713 61.2316C219.439 57.2496 219.61 54.5476 220.193 53.1254C220.81 51.7388 222.317 50.85 224.75 50.4945L247.981 47.0813C249.9 46.7969 251.579 47.3658 253.087 48.7168C254.56 50.1034 255.485 51.9166 255.794 54.192L257.267 64.2537C257.438 65.498 257.849 66.1024 258.466 65.9958C258.877 65.9247 259.597 65.3203 260.693 64.1114L275.461 45.1615C276.661 43.5616 278.237 42.6372 280.156 42.3172C282.074 41.9972 284.165 41.6772 286.357 41.3572L293.039 40.4684C293.964 40.3262 294.649 40.6817 295.129 41.535C295.609 42.3883 295.54 43.206 294.924 44.0593C289.201 51.9522 283.445 59.3117 277.586 66.138C277.072 66.778 276.866 67.3468 276.935 67.9157C277.003 68.4845 277.414 69.0534 278.134 69.6222L283.479 73.782C286.186 75.8796 288.413 77.6218 290.161 78.9728C291.908 80.3238 293.964 81.9237 296.363 83.8436C301.125 87.6834 304.792 90.8121 307.362 93.2297C308.698 94.5097 309.486 95.8962 309.692 97.3895C309.76 97.9228 309.76 98.5272 309.657 99.1316C309.315 101.265 308.047 102.474 305.923 102.794L282.588 106.207C280.807 106.562 279.402 106.242 278.374 105.353Z" fill="#F8F6BE"/>
<path d="M71.1422 140.089C65.934 140.729 62.4048 142.613 60.623 145.671C58.8413 148.729 58.293 153.315 59.0126 159.395C60.1433 168.959 63.3985 173.403 68.778 172.727C69.8744 172.585 70.594 172.478 70.9366 172.372C70.2514 172.443 69.5318 171.27 68.8122 168.781C68.0927 166.292 67.5445 163.697 67.2361 160.923C66.9277 158.15 67.4417 156.266 68.778 155.27C70.1486 154.275 72.1016 153.599 74.6715 153.279C77.2413 152.96 79.0573 152.746 80.0853 152.64C81.1132 152.533 82.2782 152.533 83.6145 152.568C84.9508 152.604 85.9788 152.817 86.7326 153.137C88.4801 153.884 89.4395 155.235 89.6793 157.155L91.2212 170.345C91.7695 175.038 91.3926 178.878 90.0905 181.9C88.7885 184.887 85.9445 186.913 81.5244 187.98C75.3225 189.437 65.797 190.966 52.9478 192.566C47.7738 193.206 43.2509 192.922 39.379 191.713C35.5071 190.504 32.3548 188.513 29.9906 185.74C25.639 180.62 22.9321 173.723 21.9384 165.083C20.9105 156.444 22.658 148.409 27.2151 141.014C31.7723 133.618 38.4539 129.103 47.2599 127.503C53.2904 126.366 57.6763 125.654 60.4174 125.299C70.3199 124.055 77.4469 123.806 81.7642 124.552C84.711 125.05 86.3899 127.219 86.8696 131.13C87.4864 136.356 86.3214 139.165 83.3404 139.52C82.4153 139.591 80.5307 139.627 77.721 139.663C74.9113 139.769 72.7184 139.876 71.1422 140.089Z" fill="#F8F6BE"/>
<path d="M235.783 138.276L234.755 154.631C234.618 157.048 234.858 158.826 235.509 160.07C236.16 161.279 237.599 161.955 239.861 162.097L259.837 163.341C262.269 163.554 263.366 165.545 263.126 169.314C262.955 172.194 262.509 174.292 261.721 175.572C260.967 176.851 259.528 177.42 257.404 177.349C249.969 177.1 242.636 176.745 235.372 176.318C228.108 175.856 218.856 175.252 207.618 174.434C205.733 174.327 204.225 173.758 203.095 172.727C201.964 171.696 201.382 170.345 201.313 168.639C201.176 163.874 201.382 156.373 201.998 146.133C202.581 135.894 203.095 128.997 203.54 125.441C203.986 121.886 204.602 119.539 205.425 118.402C206.213 117.264 207.72 116.766 209.879 116.908L231.02 118.224C233.213 118.366 234.652 119.042 235.303 120.286C235.954 121.53 236.263 123.486 236.263 126.188C236.263 128.819 236.091 132.872 235.783 138.276Z" fill="#F8F6BE"/>
<path d="M267.101 171.696L262.132 122.632C262.064 117.584 263.777 114.74 267.204 114.1C269.671 113.744 286.118 111.824 316.545 108.34C319.834 107.949 321.753 110.473 322.301 115.806C322.575 118.508 321.239 120.037 318.326 120.357L300.372 122.419C299.207 122.561 298.35 123.095 297.733 123.983C297.117 124.908 296.911 126.046 297.048 127.432L297.699 133.867C297.87 135.752 298.693 136.605 300.132 136.427L313.803 134.863C315.105 134.721 316.133 134.934 316.853 135.503C317.572 136.107 318.052 137.565 318.292 139.947C318.532 142.329 318.361 143.893 317.812 144.604C317.23 145.351 316.236 145.778 314.831 145.955L302.565 147.378C301.194 147.52 300.269 148.018 299.823 148.8C299.378 149.582 299.241 150.755 299.378 152.32L300.92 167.856C301.125 169.954 300.886 171.59 300.166 172.692C299.447 173.794 298.419 174.434 297.117 174.612L273.714 177.278C272.172 177.456 270.801 177.065 269.602 176.069C268.334 175.145 267.546 173.652 267.101 171.696Z" fill="#F8F6BE"/>
<path d="M136.706 116.621C108.889 124.079 90.1997 145.699 95.0131 164.913C99.8264 184.161 126.25 193.717 154.101 186.258C181.919 178.799 200.608 157.179 195.794 137.966C190.981 118.752 164.524 109.196 136.706 116.621ZM146.864 157.351C137.337 159.895 128.308 156.629 126.648 150.064C125.022 143.499 131.395 136.075 140.922 133.532C150.449 130.988 159.479 134.253 161.138 140.818C162.765 147.383 156.391 154.808 146.864 157.351Z" fill="#ECD06B"/>
</g>
<path d="M15.3729 40.9926C14.2422 40.8134 13.4543 40.599 13.0091 40.3852C12.5296 40.1357 12.2214 39.9575 12.0502 39.8507C11.6393 39.5657 11.3999 39.1388 11.3662 38.6055C11.3324 38.1789 11.3329 37.7523 11.4019 37.3258C11.5056 36.5794 11.8145 36.1532 12.3286 36.1183C12.4999 36.1185 13.0138 36.2258 13.9045 36.4758C14.7952 36.7258 15.5147 36.7979 15.9945 36.763C16.7485 36.6928 17.0916 36.3378 17.0238 35.7333C16.9899 35.3778 16.7847 35.0576 16.3738 34.7727C15.9629 34.4877 15.5177 34.2383 14.9696 34.0243C14.4216 33.7747 13.8736 33.5251 13.3257 33.2045C12.7435 32.8838 12.23 32.4209 11.8195 31.8161C11.3747 31.2111 11.1356 30.4643 11.0339 29.5754C10.8984 28.1177 11.4481 26.9097 12.7514 25.9515C14.0547 24.9934 15.7688 24.3913 17.928 24.1452C20.0872 23.8992 21.8348 23.9726 23.1709 24.2943C24.507 24.616 25.1917 25.1856 25.2593 26.0034C25.3271 26.6078 25.2237 27.1409 25.0176 27.6028C24.8114 28.0647 24.537 28.3132 24.2628 28.3484C24.16 28.3483 23.8174 28.2767 23.2008 28.0982C22.6184 27.9196 22.0702 27.8478 21.5904 27.9183C20.665 28.0237 20.2533 28.4498 20.321 29.1609C20.3549 29.5164 20.5944 29.8367 21.0739 30.0862C21.5534 30.3357 22.1014 30.5852 22.7522 30.7994C23.4031 31.0135 24.0539 31.2632 24.7047 31.5485C25.3554 31.8337 25.9375 32.2611 26.4509 32.795C26.9643 33.3645 27.2376 34.0758 27.3395 34.9292C27.4413 35.7825 27.2347 36.5999 26.7884 37.3814C26.342 38.1629 25.6902 38.7664 24.8329 39.263C23.1869 40.2207 21.1987 40.8224 18.9024 41.0683C17.6687 41.1733 16.4693 41.1718 15.3729 40.9926Z" fill="#316D7B"/>
<path d="M41.7772 23.215L50.1589 34.9931C50.5011 35.4557 50.6719 35.8825 50.7058 36.2025C50.7397 36.5581 50.6366 36.8068 50.3965 37.0198C50.1564 37.1972 49.8479 37.339 49.5052 37.3741L42.4797 38.1115C41.7601 38.1817 41.2804 38.11 41.0751 37.8609C41.0067 37.7897 40.9041 37.6118 40.8015 37.3983L39.9807 36.0464C39.7413 35.6194 39.2618 35.4411 38.5764 35.4402L34.4297 35.8614C34.1213 35.8965 33.8814 35.9318 33.7442 36.0382C33.5728 36.1091 33.4698 36.2512 33.401 36.4999L32.7135 38.4188C32.6104 38.703 32.4388 38.9161 32.3016 39.0226C32.1302 39.129 31.8902 39.1998 31.5475 39.2349L29.5941 39.4457C29.0115 39.516 28.7033 39.3378 28.601 38.9111C28.5668 38.84 28.5669 38.8044 28.5669 38.7333C28.5331 38.3778 28.602 38.0579 28.808 37.7027L34.4085 24.4496C34.9582 23.2061 35.9527 22.4964 37.4263 22.3561L39.1741 22.1806C40.3393 22.0399 41.1956 22.3966 41.7772 23.215ZM35.2591 29.7478L34.4685 31.9153C34.4341 32.0575 34.3997 32.1996 34.4338 32.2708C34.4677 32.6619 34.6731 32.8399 35.05 32.8048L37.0377 32.5941C37.3461 32.559 37.5519 32.4526 37.6549 32.275C37.7579 32.0974 37.7923 31.9552 37.7924 31.8485C37.7925 31.7419 37.7584 31.5997 37.69 31.4929L36.6642 29.6429C36.459 29.2516 36.2193 29.1091 35.9452 29.1088C35.6024 29.1794 35.3966 29.3924 35.2591 29.7478Z" fill="#316D7B"/>
<path d="M64.8745 20.7547L73.2562 32.5328C73.5984 32.9954 73.7692 33.4223 73.8031 33.7423C73.837 34.0978 73.7339 34.3465 73.4938 34.5595C73.2537 34.737 72.9452 34.8788 72.6025 34.9139L65.577 35.6513C64.8574 35.7214 64.3777 35.6497 64.1724 35.4006C64.104 35.3294 64.0014 35.1515 63.8988 34.9381L63.1122 33.5861C62.8728 33.1592 62.3933 32.9808 61.708 32.9799L57.5613 33.4011C57.2529 33.4363 57.013 33.4715 56.8758 33.578C56.7044 33.6489 56.6014 33.7909 56.5326 34.0397L55.8451 35.9585C55.7419 36.2428 55.5704 36.4559 55.4332 36.5623C55.2617 36.6688 55.0218 36.7396 54.6791 36.7747L52.7257 36.9854C52.143 37.0558 51.8349 36.8776 51.7325 36.4509C51.6984 36.3797 51.6984 36.3442 51.6985 36.2731C51.6646 35.9175 51.7335 35.5976 51.9395 35.2424L57.5401 21.9894C58.0897 20.7459 59.0843 20.0361 60.5579 19.8959L62.3057 19.7204C63.4709 19.6153 64.3271 19.9363 64.8745 20.7547ZM58.3906 27.3231L57.6 29.4906C57.5656 29.6328 57.5312 29.7749 57.5654 29.8461C57.5992 30.2372 57.8046 30.4152 58.1815 30.3801L60.1692 30.1694C60.4777 30.1343 60.6834 30.0279 60.7864 29.8503C60.8894 29.6727 60.9238 29.5305 60.9239 29.4239C60.9241 29.3172 60.89 29.175 60.8215 29.0682L59.7957 27.2183C59.5905 26.8269 59.3508 26.6844 59.0767 26.6841C58.734 26.7192 58.5281 26.9322 58.3906 27.3231Z" fill="#316D7B"/>
<path d="M89.7423 28.6773C90.0504 28.9621 91.1457 29.9945 93.0284 31.7745C93.1311 31.9168 93.1995 32.0235 93.2336 32.1302C93.2674 32.5213 93.1301 32.7345 92.7874 32.7696C91.9991 32.8752 91.2452 32.9453 90.4569 33.0509C89.6687 33.121 88.9147 33.1911 88.1265 33.2612C87.7152 33.2962 87.3041 33.189 86.9276 32.8686L84.7719 30.1284C84.7034 30.0572 84.6007 29.986 84.4979 29.9858C84.2581 29.9144 84.1552 30.0209 84.1891 30.3054L84.4263 32.6165C84.4941 33.2564 84.1168 33.647 83.2942 33.7881C82.4716 33.9293 81.5805 34.0347 80.5867 34.1401C79.5928 34.2455 78.4276 34.315 77.0226 34.3843C76.6114 34.3838 76.2345 34.2766 75.9607 34.0274C75.6868 33.7782 75.5158 33.4936 75.4134 33.138C75.1751 31.8223 74.9033 29.7245 74.6324 26.8801C74.3615 24.0358 74.1926 21.9381 74.1598 20.6583C74.127 19.3429 74.6761 18.6326 75.8756 18.4919C76.9724 18.3512 78.4803 18.1754 80.3995 18.0001C82.3187 17.7893 83.8952 17.6492 85.1632 17.5442C86.9796 17.3688 88.5209 17.9396 89.8217 19.15C91.1224 20.396 91.8404 21.8545 92.0098 23.5611C92.1114 24.5566 91.9733 25.5163 91.6296 26.4046C91.1488 27.3283 90.5654 28.0741 89.7423 28.6773ZM83.3413 22.5188L83.782 26.7143C83.8159 26.9988 83.9871 27.1412 84.2956 27.106C85.1866 27.0005 85.8724 26.6815 86.3527 26.1133C86.8331 25.5451 87.0052 24.9055 86.9375 24.1944C86.8698 23.4833 86.562 22.9141 86.0143 22.4512C85.4665 21.9883 84.7471 21.8097 83.7875 21.9151C83.4449 21.8791 83.3075 22.0922 83.3413 22.5188Z" fill="#316D7B"/>
<path d="M95.9737 31.9887C95.6656 31.7395 95.4262 31.3126 95.2898 30.6726C95.1535 30.0325 94.9158 28.1126 94.611 24.913C94.3063 21.7133 94.1374 19.5802 94.1385 18.6204C94.1399 17.3407 94.5862 16.6303 95.5117 16.4893C96.5742 16.3485 100.893 15.8565 108.57 15.0489C109.427 14.9434 109.906 15.4772 110.042 16.6149C110.144 17.5037 109.8 18.001 109.046 18.0711L104.248 18.598C103.94 18.6332 103.699 18.775 103.562 18.9882C103.391 19.2368 103.322 19.4855 103.356 19.841L103.525 21.4764C103.559 21.9386 103.798 22.1522 104.175 22.0816L108.151 21.6602C108.391 21.625 108.562 21.6252 108.7 21.6609C108.837 21.6967 108.939 21.8034 109.076 22.0169C109.213 22.2304 109.281 22.5859 109.349 23.0837C109.383 23.5814 109.348 23.9368 109.211 24.1144C109.073 24.292 108.799 24.3982 108.422 24.4333L104.755 24.8195C104.378 24.8546 104.138 24.9965 104.035 25.1741C103.932 25.3872 103.863 25.6715 103.897 26.0626L103.998 27.1647C104.066 27.8046 104.408 28.125 104.991 28.0547L110.441 27.493C110.715 27.4578 110.955 27.5293 111.16 27.6717C111.366 27.8142 111.502 28.1343 111.57 28.6676C111.638 29.2009 111.535 29.6984 111.329 30.1603C111.122 30.6221 110.848 30.835 110.505 30.8702L97.0015 32.31C96.6244 32.3451 96.2819 32.238 95.9737 31.9887Z" fill="#316D7B"/>
<path d="M120.081 15.0268C120.697 15.6675 121.382 16.4861 122.203 17.5181C123.024 18.5502 123.572 19.2263 123.88 19.5467C124.188 19.867 124.427 20.0451 124.599 20.0098C124.77 19.9745 124.907 19.868 125.01 19.6548C125.113 19.4416 125.526 18.6245 126.247 17.239C126.934 15.8179 127.517 14.7521 127.998 14.0062C128.479 13.2603 128.856 12.8697 129.199 12.799C129.507 12.7639 129.918 12.6933 130.432 12.6584C130.947 12.588 131.529 12.5532 132.215 12.5186C132.9 12.4839 133.379 12.6267 133.619 12.947C133.893 13.2673 134.063 13.7297 134.166 14.3342C134.404 15.8987 134.675 17.9965 134.912 20.6276C135.183 23.2587 135.318 25.3208 135.316 26.8494C135.316 27.2049 135.213 27.5603 135.007 27.88C134.801 28.1997 134.492 28.377 134.081 28.412C133.19 28.5175 132.196 28.6229 131.134 28.7637C130.037 28.8689 129.18 28.9389 128.529 28.9736C128.289 28.9733 128.084 28.9019 127.878 28.7595C127.673 28.617 127.57 28.368 127.502 28.0835L126.993 24.3501C126.959 23.9945 126.856 23.7811 126.719 23.7453C126.582 23.7096 126.445 23.8161 126.376 24.0648C125.758 25.5572 124.933 27.2625 123.972 29.1454C123.731 29.6073 123.388 29.8557 122.943 29.9262C122.497 29.9612 122.086 29.7829 121.778 29.3914C121.197 28.6796 120.17 27.1852 118.699 24.8725C118.597 24.7302 118.528 24.659 118.426 24.6233C118.323 24.5876 118.254 24.6586 118.186 24.7652C118.117 24.8717 118.117 25.0495 118.116 25.2983L118.386 29.067C118.386 29.3514 118.283 29.6002 118.077 29.8132C117.871 30.0262 117.597 30.1325 117.289 30.1677L115.129 30.4137C114.718 30.4487 114.41 30.3417 114.136 30.0925C113.862 29.8432 113.691 29.5586 113.623 29.203C113.385 27.8874 113.113 25.7895 112.842 22.9451C112.571 20.1007 112.402 18.0386 112.335 16.6876C112.302 16.0476 112.405 15.5501 112.611 15.1593C112.817 14.804 113.194 14.5557 113.811 14.5209C116.861 14.205 118.541 14.0294 118.78 14.0653C119.054 14.0656 119.465 14.3861 120.081 15.0268Z" fill="#316D7B"/>
<path d="M149.724 11.7573L158.106 23.5355C158.448 23.9981 158.619 24.4249 158.653 24.7449C158.687 25.1004 158.584 25.3492 158.344 25.5621C158.104 25.7396 157.795 25.8814 157.452 25.9165L150.427 26.6539C149.707 26.724 149.228 26.6523 149.022 26.4032C148.954 26.332 148.851 26.1541 148.749 25.9407L147.962 24.5887C147.723 24.1618 147.243 23.9834 146.558 23.9826L142.411 24.4038C142.103 24.4389 141.863 24.4741 141.726 24.5806C141.554 24.6515 141.451 24.7936 141.382 25.0423L140.695 26.9611C140.592 27.2454 140.42 27.4585 140.283 27.565C140.112 27.6714 139.872 27.7422 139.529 27.7773L137.576 27.988C136.993 28.0584 136.685 27.8802 136.582 27.4535C136.548 27.3823 136.548 27.3468 136.548 27.2757C136.514 26.9201 136.583 26.6003 136.789 26.245L142.39 12.992C142.94 11.7485 143.934 11.0388 145.408 10.8985L147.156 10.723C148.286 10.6178 149.143 10.9389 149.724 11.7573ZM143.206 18.3257L142.416 20.4932C142.381 20.6354 142.347 20.7775 142.381 20.8487C142.415 21.2398 142.62 21.4178 142.997 21.3827L144.985 21.172C145.293 21.1369 145.499 21.0305 145.602 20.8529C145.705 20.6752 145.739 20.5331 145.74 20.4264C145.74 20.3198 145.706 20.1775 145.637 20.0708L144.611 18.2208C144.406 17.8295 144.166 17.687 143.892 17.6866C143.55 17.7217 143.344 17.9348 143.206 18.3257Z" fill="#316D7B"/>
<path d="M173.404 9.26218L181.786 21.0403C182.128 21.5029 182.299 21.9297 182.333 22.2497C182.367 22.6053 182.264 22.854 182.024 23.067C181.783 23.2444 181.475 23.3862 181.132 23.4213L174.107 24.1587C173.387 24.2289 172.907 24.1572 172.702 23.9081C172.634 23.8369 172.531 23.659 172.429 23.4455L171.642 22.0936C171.403 21.6667 170.923 21.4883 170.238 21.4874L166.091 21.9086C165.783 21.9438 165.543 21.979 165.406 22.0855C165.234 22.1563 165.131 22.2984 165.062 22.5472L164.375 24.466C164.272 24.7503 164.1 24.9633 163.963 25.0698C163.791 25.1762 163.552 25.247 163.209 25.2821L161.255 25.4929C160.673 25.5632 160.365 25.3851 160.262 24.9583C160.228 24.8872 160.228 24.8516 160.228 24.7805C160.194 24.425 160.263 24.1051 160.469 23.7499L166.07 10.4969C166.619 9.25333 167.614 8.54362 169.088 8.40334L170.835 8.22787C171.966 8.08714 172.857 8.44381 173.404 9.26218ZM166.92 15.795L166.13 17.9626C166.095 18.1047 166.061 18.2469 166.095 18.318C166.129 18.7091 166.334 18.8871 166.711 18.8521L168.699 18.6414C169.007 18.6062 169.213 18.4998 169.316 18.3222C169.419 18.1446 169.454 18.0024 169.454 17.8958C169.454 17.7891 169.42 17.6469 169.351 17.5402L168.325 15.6902C168.12 15.2989 167.881 15.1564 167.606 15.156C167.264 15.2266 167.058 15.4397 166.92 15.795Z" fill="#316D7B"/>
<defs>
<filter id="filter0_d" x="21.6531" y="40.4379" width="300.683" height="156.46" filterUnits="userSpaceOnUse" color-interpolation-filters="sRGB">
<feFlood flood-opacity="0" result="BackgroundImageFix"/>
<feColorMatrix in="SourceAlpha" type="matrix" values="0 0 0 0 0 0 0 0 0 0 0 0 0 0 0 0 0 0 127 0"/>
<feOffset dy="4"/>
<feColorMatrix type="matrix" values="0 0 0 0 0 0 0 0 0 0 0 0 0 0 0 0 0 0 0.25 0"/>
<feBlend mode="normal" in2="BackgroundImageFix" result="effect1_dropShadow"/>
<feBlend mode="normal" in="SourceGraphic" in2="effect1_dropShadow" result="shape"/>
</filter>
</defs>
</svg>
