<svg width="510" height="363" viewBox="0 0 510 363" fill="none" xmlns="http://www.w3.org/2000/svg">
<g opacity="0.33">
<ellipse cx="133.049" cy="328.5" rx="15.0485" ry="8.5" fill="white"/>
<ellipse cx="172.777" cy="330.5" rx="15.0485" ry="8.5" fill="white"/>
<ellipse cx="151.107" cy="334.5" rx="15.0485" ry="8.5" fill="white"/>
<ellipse cx="157.728" cy="322.5" rx="12.0388" ry="8.5" fill="white"/>
<ellipse cx="143.282" cy="319" rx="9.63107" ry="10" fill="white"/>
</g>
<g opacity="0.33">
<ellipse cx="310.756" cy="295.897" rx="8.5621" ry="4.75" fill="white"/>
<ellipse cx="333.36" cy="297.015" rx="8.56211" ry="4.75" fill="white"/>
<ellipse cx="321.031" cy="299.25" rx="8.56211" ry="4.75" fill="white"/>
<ellipse cx="324.798" cy="292.544" rx="6.84968" ry="4.75" fill="white"/>
<ellipse cx="316.578" cy="290.588" rx="5.47975" ry="5.58824" fill="white"/>
</g>
<g opacity="0.33">
<ellipse cx="418.165" cy="352.765" rx="10.3783" ry="6" fill="white"/>
<ellipse cx="445.563" cy="354.176" rx="10.3783" ry="6" fill="white"/>
<ellipse cx="430.619" cy="357" rx="10.3783" ry="6" fill="white"/>
<ellipse cx="435.185" cy="348.529" rx="8.30264" ry="6" fill="white"/>
<ellipse cx="425.222" cy="346.059" rx="6.64212" ry="7.05882" fill="white"/>
</g>
<g opacity="0.33">
<ellipse cx="408.501" cy="70.2206" rx="16.3458" ry="9.25" fill="white"/>
<ellipse cx="451.654" cy="72.3971" rx="16.3458" ry="9.25" fill="white"/>
<ellipse cx="428.116" cy="76.75" rx="16.3458" ry="9.25" fill="white"/>
<ellipse cx="435.308" cy="63.6912" rx="13.0767" ry="9.25" fill="white"/>
<ellipse cx="419.616" cy="59.8824" rx="10.4613" ry="10.8824" fill="white"/>
</g>
<g opacity="0.33">
<ellipse cx="174.385" cy="13.7646" rx="10.6378" ry="6" fill="white"/>
<ellipse cx="202.469" cy="15.1765" rx="10.6378" ry="6" fill="white"/>
<ellipse cx="187.151" cy="18" rx="10.6378" ry="6" fill="white"/>
<ellipse cx="191.831" cy="9.52942" rx="8.51021" ry="6" fill="white"/>
<ellipse cx="181.619" cy="7.05882" rx="6.80817" ry="7.05882" fill="white"/>
</g>
<g opacity="0.33">
<ellipse cx="83.0067" cy="61.7646" rx="10.6378" ry="6" fill="white"/>
<ellipse cx="111.09" cy="63.1765" rx="10.6378" ry="6" fill="white"/>
<ellipse cx="95.772" cy="66" rx="10.6378" ry="6" fill="white"/>
<ellipse cx="100.453" cy="57.5294" rx="8.51021" ry="6" fill="white"/>
<ellipse cx="90.2404" cy="55.0588" rx="6.80817" ry="7.05882" fill="white"/>
</g>
<g opacity="0.33">
<ellipse cx="15.0862" cy="207.5" rx="15.0862" ry="8.5" fill="white"/>
<ellipse cx="54.9138" cy="209.5" rx="15.0862" ry="8.5" fill="white"/>
<ellipse cx="33.1897" cy="213.5" rx="15.0862" ry="8.5" fill="white"/>
<ellipse cx="39.8276" cy="201.5" rx="12.069" ry="8.5" fill="white"/>
<ellipse cx="25.3448" cy="198" rx="9.65517" ry="10" fill="white"/>
</g>
<g opacity="0.33">
<ellipse cx="478.562" cy="233.897" rx="8.5621" ry="4.75" fill="white"/>
<ellipse cx="501.166" cy="235.015" rx="8.56211" ry="4.75" fill="white"/>
<ellipse cx="488.837" cy="237.25" rx="8.56211" ry="4.75" fill="white"/>
<ellipse cx="492.604" cy="230.544" rx="6.84968" ry="4.75" fill="white"/>
<ellipse cx="484.384" cy="228.588" rx="5.47975" ry="5.58824" fill="white"/>
</g>
</svg>
